<?xml version="1.0" standalone="no"?>
<!DOCTYPE svg PUBLIC "-//W3C//DTD SVG 20010904//EN"
 "http://www.w3.org/TR/2001/REC-SVG-20010904/DTD/svg10.dtd">
<svg version="1.0" xmlns="http://www.w3.org/2000/svg"
 width="1920.000000pt" height="922.000000pt" viewBox="0 0 1920.000000 922.000000"
 preserveAspectRatio="xMidYMid meet">
<metadata>
Created by potrace 1.16, written by Peter Selinger 2001-2019
</metadata>
<g transform="translate(0.000000,922.000000) scale(0.100000,-0.100000)"
fill="#000000" stroke="none">
<path d="M0 6985 l0 -2235 23 -1 22 0 -23 -11 -22 -11 0 -1083 0 -1084 66 35
c37 20 71 34 77 32 5 -1 -14 -15 -42 -30 -28 -16 -51 -32 -51 -37 0 -5 -11
-12 -25 -16 -25 -6 -25 -8 -25 -106 0 -91 2 -100 18 -94 14 5 14 4 -2 -9 -28
-21 -12 -30 29 -18 21 7 35 7 35 2 0 -10 -8 -14 -52 -23 -28 -6 -28 -7 -28
-90 l0 -83 68 13 c105 21 125 16 47 -11 -38 -14 -80 -25 -92 -25 l-23 0 0
-189 c0 -142 3 -191 13 -194 9 -4 9 -6 0 -6 -7 -1 -13 -6 -13 -11 0 -14 44 -2
94 24 32 16 62 20 155 22 119 3 152 10 305 68 68 26 136 34 136 17 0 -5 -26
-19 -58 -31 -88 -35 -87 -43 5 -36 68 6 87 4 115 -11 l33 -17 -65 -7 c-36 -4
-75 -5 -87 -2 -33 7 -73 -5 -73 -22 0 -8 -4 -15 -8 -15 -5 0 -19 -9 -32 -20
-16 -14 -36 -20 -59 -19 -20 1 -54 -5 -76 -13 -22 -9 -94 -21 -159 -28 -91 -9
-131 -18 -172 -38 -51 -25 -54 -28 -54 -64 0 -35 3 -38 28 -39 53 -2 87 3 115
18 15 8 51 17 79 20 48 6 50 5 38 -14 -7 -11 -31 -24 -53 -29 -44 -10 -59 -29
-30 -37 10 -3 0 -3 -22 0 -22 3 -44 9 -50 14 -5 5 -31 9 -57 9 l-48 0 0 -725
0 -725 2536 0 c2521 0 2536 0 2564 20 l28 20 -5 -20 c-5 -20 -1 -20 2394 -20
l2399 0 22 25 c22 25 42 33 42 16 0 -6 -5 -13 -10 -16 -5 -3 -10 -10 -10 -16
0 -5 1341 -9 3558 -8 l3557 1 -50 23 c-27 13 -42 24 -31 24 10 1 40 -10 68
-24 l50 -25 1044 0 1044 0 0 1569 0 1570 -29 20 c-16 12 -51 31 -78 44 -26 12
-69 37 -95 55 -25 17 -59 37 -75 44 -23 9 -25 12 -10 15 11 3 43 -12 75 -35
51 -36 193 -112 207 -112 4 0 5 44 3 97 l-3 98 -39 18 c-48 23 -42 33 7 12
l37 -15 0 64 c0 42 -4 66 -12 69 -10 4 -10 8 1 15 10 7 4 13 -25 22 -47 16
-105 50 -84 50 8 0 39 -11 68 -25 l52 -24 0 2834 0 2835 -9600 0 -9600 0 0
-2235z m5245 -2269 c22 -8 52 -15 66 -16 14 0 33 -6 44 -14 17 -12 17 -13 -9
-20 -15 -4 -25 -10 -22 -15 3 -4 -18 -4 -45 0 -40 6 -56 5 -75 -8 -22 -14 -28
-11 -25 10 1 10 -4 9 -80 -7 -72 -15 -103 -28 -136 -58 -12 -11 -26 -19 -32
-17 -18 6 16 47 61 75 50 32 44 40 -16 20 -26 -9 -57 -16 -69 -15 -20 0 12 12
93 34 14 4 34 10 45 15 11 4 40 13 65 20 25 7 50 14 55 16 12 4 29 0 80 -20z
m12184 -221 c56 -30 104 -75 79 -75 -20 0 -30 -24 -22 -58 l5 -27 -25 28 c-14
15 -26 37 -26 47 0 13 -9 22 -26 26 -28 7 -44 -3 -48 -31 -3 -21 -70 -47 -84
-33 -6 6 -17 6 -30 -1 -11 -6 -34 -11 -51 -11 -37 0 -42 -22 -9 -37 14 -6 18
-12 11 -16 -6 -4 -18 0 -26 8 -9 8 -20 15 -26 15 -6 0 -11 5 -11 11 0 7 -7 8
-17 4 -10 -4 -25 -7 -33 -7 -23 1 -60 -20 -54 -30 3 -4 -4 -8 -15 -8 -31 0
-25 -18 12 -40 17 -11 26 -20 19 -20 -8 0 -10 -5 -6 -12 5 -9 2 -8 -9 1 -13
10 -24 11 -40 4 -33 -15 -52 -6 -34 16 13 14 11 18 -19 32 -31 15 -36 15 -66
0 -43 -22 -46 -38 -7 -46 29 -7 89 -58 89 -77 0 -4 -19 -1 -41 7 -23 8 -52 15
-64 15 -13 0 -42 9 -66 20 -24 11 -36 20 -26 20 10 0 16 4 13 8 -3 5 4 15 15
22 10 8 19 20 19 28 0 7 7 15 15 18 8 4 15 12 15 19 0 19 22 23 122 24 54 0
103 7 130 17 24 9 55 18 71 21 30 6 35 18 12 27 -22 8 -18 26 5 26 11 0 20 -5
20 -10 0 -16 110 -5 121 11 16 25 10 42 -12 36 -19 -5 -19 -3 7 24 34 36 51
36 113 4z m-14057 -24 c-24 -15 17 -23 88 -17 l65 6 -50 -15 c-27 -8 -69 -15
-92 -15 -24 0 -43 -4 -43 -10 0 -9 61 -30 88 -30 6 0 12 -5 12 -11 0 -8 -13
-9 -37 -4 -55 10 -28 -15 40 -37 l52 -17 -67 5 c-37 2 -79 9 -93 14 -38 14
-55 13 -49 -5 5 -12 -2 -15 -28 -15 -40 0 -58 -15 -58 -49 0 -38 -16 -59 -32
-43 -6 6 -31 12 -55 12 -38 0 -44 -3 -57 -33 -13 -26 -28 -36 -82 -55 -36 -13
-69 -21 -72 -18 -3 4 4 17 16 29 12 13 20 26 16 29 -9 9 32 28 42 20 5 -4 3 1
-5 10 -12 16 -16 15 -53 -13 -23 -16 -53 -29 -68 -29 -25 0 -111 -47 -124 -69
-4 -6 -15 -11 -26 -11 -10 0 -20 -7 -24 -15 -6 -17 -32 -20 -41 -5 -3 6 5 14
19 20 15 5 25 15 24 21 -2 7 8 15 22 19 14 4 41 17 60 28 19 12 46 22 61 22
28 0 129 47 129 60 0 11 81 50 92 44 4 -3 8 2 8 10 0 24 -39 19 -81 -10 -25
-17 -44 -24 -58 -19 -28 9 -26 23 4 37 13 6 22 15 18 21 -4 6 -1 7 6 2 14 -8
51 26 51 49 0 8 14 19 31 25 28 10 30 9 23 -12 -5 -18 -4 -20 7 -9 7 6 22 12
32 12 15 0 17 3 8 14 -10 12 3 14 83 14 80 -1 100 3 128 20 l33 22 -67 0 c-39
0 -68 -4 -68 -10 0 -5 -11 -10 -25 -10 -16 0 -25 6 -25 15 0 12 20 15 118 15
67 0 111 -4 104 -9z m-1062 -222 c-14 -4 -53 -7 -87 -8 -50 -1 -66 -5 -83 -23
-11 -12 -20 -16 -20 -10 0 17 -25 15 -40 -3 -10 -12 -8 -16 14 -25 15 -5 24
-15 21 -22 -3 -7 5 -18 17 -23 13 -6 22 -18 21 -29 -1 -17 5 -18 70 -12 42 4
138 0 231 -9 88 -8 161 -15 163 -15 3 0 -2 -7 -11 -15 -17 -18 -38 -19 -53 -4
-7 7 -34 9 -75 6 -218 -21 -241 -24 -250 -40 -5 -10 -15 -17 -22 -17 -8 0 -19
-6 -25 -14 -9 -11 -7 -15 9 -19 28 -7 25 -25 -5 -33 -13 -3 -29 -12 -35 -19
-6 -7 -22 -10 -36 -7 -15 3 -29 -1 -34 -8 -4 -7 -23 -14 -41 -16 -18 -2 -37
-11 -42 -19 -4 -8 -17 -19 -27 -25 -16 -8 -18 -8 -14 5 4 8 13 15 21 15 8 0
11 5 7 11 -6 11 -14 10 -101 -9 -73 -16 -47 2 46 32 51 17 104 41 123 58 18
15 41 28 51 28 15 0 22 21 19 51 -1 4 22 16 51 27 l52 21 -52 0 c-47 1 -100
-13 -113 -30 -3 -4 -21 -10 -40 -14 l-35 -7 30 27 30 26 -40 -5 c-23 -3 -47
-14 -57 -26 -9 -11 -27 -24 -40 -29 l-23 -10 25 0 c24 -1 24 -1 5 -20 -11 -10
-60 -31 -110 -46 -49 -15 -113 -42 -141 -61 -58 -39 -66 -41 -62 -16 5 28 -36
26 -115 -6 -40 -16 -112 -41 -162 -56 -129 -39 -178 -57 -195 -72 -20 -17 -75
-31 -66 -16 3 6 -2 13 -11 15 -15 4 -15 5 2 6 27 1 126 36 191 67 28 13 58 24
66 24 9 0 33 7 54 16 35 15 115 35 209 53 43 9 138 45 170 65 32 20 85 36 85
25 0 -5 -5 -9 -12 -9 -6 0 -9 -2 -6 -5 11 -11 56 17 51 31 -3 8 2 17 11 20 9
3 16 12 16 20 0 11 -6 11 -27 3 -21 -7 -25 -7 -17 1 6 6 55 22 109 35 54 14
103 30 109 36 8 9 5 10 -11 6 -16 -3 -20 -1 -16 9 4 10 0 12 -13 8 -16 -6 -16
-4 4 18 41 45 20 53 -34 12 -19 -15 -37 -24 -41 -20 -3 3 -1 6 6 6 7 0 11 6 8
14 -6 15 77 65 125 75 43 9 247 9 218 0z m14308 -10 c23 1 32 -3 32 -14 0 -9
-9 -15 -24 -15 -13 0 -34 -9 -47 -19 -21 -17 -22 -22 -11 -40 10 -17 10 -25 0
-41 -11 -16 -9 -22 7 -34 19 -14 17 -15 -16 -9 -20 3 -39 1 -43 -5 -9 -15 23
-72 41 -72 9 0 13 -3 10 -6 -10 -10 -70 17 -95 43 -23 23 -49 32 -37 13 3 -5
3 -10 -2 -10 -4 0 -17 -3 -29 -6 -15 -4 -23 1 -31 18 -12 28 -1 58 22 58 8 0
15 9 15 21 0 16 -4 19 -22 14 -22 -7 -22 -6 -3 7 11 8 35 20 53 28 21 8 32 18
30 29 -6 26 42 53 82 46 19 -4 50 -6 68 -6z m458 -56 c-1 -14 7 -17 44 -14 25
1 55 9 66 16 15 10 39 12 76 8 51 -5 56 -8 67 -38 17 -48 63 -88 123 -109 29
-10 67 -24 85 -32 17 -8 43 -14 57 -14 65 0 298 -142 281 -171 -3 -5 9 -18 27
-29 l33 -20 -35 0 c-19 0 -42 5 -50 10 -13 8 -13 10 2 10 21 0 12 37 -11 45
-10 3 -30 18 -45 34 -28 29 -28 29 -47 10 -23 -23 -18 -34 23 -59 l29 -17 -27
-6 c-22 -4 -37 4 -78 41 -28 26 -53 48 -56 50 -2 2 2 7 9 11 16 10 6 31 -15
31 -8 0 -13 4 -9 9 7 13 -20 27 -70 36 -22 3 -59 18 -82 32 -24 14 -43 20 -43
15 0 -6 13 -16 30 -24 16 -7 32 -19 35 -26 4 -10 0 -12 -12 -7 -29 13 -63 8
-83 -11 -36 -36 -50 -45 -91 -59 -23 -8 -44 -15 -47 -15 -15 0 53 59 75 65 35
8 28 45 -12 58 -31 10 -50 32 -50 57 0 8 -7 15 -15 15 -8 0 -14 -6 -12 -12 4
-22 -45 -14 -76 12 -17 14 -43 25 -58 26 -41 1 -75 12 -75 24 0 6 -17 15 -37
22 l-37 12 33 -3 c36 -3 39 1 15 20 -16 12 -13 13 23 14 33 0 41 -3 40 -17z
m-414 -207 c43 -24 130 -47 171 -45 21 0 21 1 2 9 -11 5 -32 9 -47 9 -31 1
-37 15 -12 25 25 9 64 7 64 -4 0 -5 17 -10 37 -10 26 0 52 -11 90 -37 31 -21
67 -37 86 -38 198 -11 388 -40 522 -80 132 -40 196 -48 303 -40 53 3 115 8
137 9 95 6 94 6 45 27 -55 24 -38 21 108 -22 71 -20 112 -37 112 -46 0 -7 -5
-13 -12 -13 -32 0 45 -33 260 -112 34 -13 74 -33 89 -45 14 -13 31 -23 37 -23
13 -1 73 -60 60 -60 -5 0 -24 9 -42 20 -39 24 -107 27 -116 5 -6 -17 -41 -20
-51 -6 -3 6 4 15 16 21 21 12 21 12 -8 30 -16 9 -36 29 -45 42 -18 28 -104 55
-134 44 -9 -4 -39 7 -69 24 -29 16 -58 30 -65 30 -8 0 -25 14 -39 30 -19 22
-37 32 -66 35 l-40 5 35 -16 c19 -9 43 -25 53 -35 18 -19 18 -20 -10 -13 -15
3 -52 17 -81 30 -56 26 -72 29 -72 15 0 -15 24 -29 81 -45 70 -21 145 -69 153
-99 3 -12 21 -33 40 -47 36 -26 64 -70 45 -70 -5 0 -19 9 -31 20 -13 12 -36
20 -55 20 -18 0 -32 3 -30 8 10 30 -100 74 -132 53 -10 -6 1 -9 33 -9 46 1 72
-14 60 -34 -3 -4 0 -8 5 -8 6 0 11 -7 11 -15 0 -8 -4 -15 -9 -15 -10 0 -7 -97
4 -124 7 -17 5 -18 -28 -12 -20 4 -48 4 -63 0 -25 -6 -26 -8 -9 -20 14 -11 15
-14 4 -19 -70 -25 -105 -35 -123 -34 -21 0 -21 1 2 11 29 15 28 38 -2 38 -20
0 -38 -19 -37 -40 0 -3 -14 -19 -31 -37 -24 -25 -29 -35 -20 -46 7 -8 9 -17 6
-20 -10 -10 -24 2 -24 21 0 10 -11 29 -24 43 -24 25 -24 26 -3 38 14 9 16 15
8 20 -15 10 43 27 129 40 74 10 117 25 143 48 16 15 16 18 1 34 -15 17 -15 19
-1 25 15 5 15 8 1 21 -13 13 -23 10 -87 -28 -39 -23 -80 -49 -89 -57 -12 -10
-18 -11 -18 -3 0 6 12 19 28 29 62 40 111 78 111 87 1 6 -11 21 -24 34 -25 24
-25 41 1 41 22 0 17 18 -13 47 -16 14 -27 29 -26 33 1 4 -10 19 -25 33 -23 21
-40 26 -112 31 -74 6 -83 5 -68 -7 10 -8 15 -17 12 -20 -10 -10 43 -19 68 -12
17 5 19 4 9 -4 -13 -8 -11 -13 10 -30 l24 -20 -32 -1 c-17 0 -38 6 -45 14 -18
18 -62 39 -115 56 -27 8 -43 19 -43 29 0 13 -2 13 -9 2 -6 -9 -16 -11 -32 -5
-13 4 -31 8 -39 9 -31 3 -120 37 -120 46 0 5 -6 9 -14 9 -8 0 -22 7 -31 16
-19 20 -21 18 -30 -23 -4 -21 -3 -33 4 -33 6 0 11 -4 11 -10 0 -16 -46 -11
-61 6 -7 9 -13 26 -14 38 0 17 -13 25 -65 43 -78 27 -187 42 -176 24 13 -20
-70 -4 -111 22 -7 4 -24 5 -38 1 -15 -4 -25 -2 -25 5 0 6 -14 11 -31 11 -20 0
-28 -4 -23 -12 4 -7 3 -8 -5 -4 -6 4 -9 11 -6 15 2 5 -10 11 -28 14 -69 11
-149 40 -175 63 -35 30 -24 30 30 0z m-14807 -530 c17 -12 9 -14 -70 -10 -142
5 -315 -50 -378 -121 -17 -19 -17 -19 -2 20 20 52 50 75 133 102 83 26 285 32
317 9z m4116 -41 c16 -13 46 -27 67 -30 64 -11 69 -14 12 -9 -86 9 -133 9
-155 0 -19 -7 -19 -8 5 -26 26 -20 66 -27 55 -11 -8 14 24 29 49 23 35 -8 48
-23 35 -38 -9 -11 -5 -17 17 -27 60 -26 116 -59 111 -64 -3 -2 -27 8 -53 23
-64 38 -177 57 -223 38 -32 -13 -33 -13 -28 6 4 17 -7 36 -23 39 -36 9 -50 15
-50 23 0 6 -7 8 -15 4 -8 -3 -15 -2 -15 3 0 13 33 38 60 46 14 4 34 14 45 22
26 18 69 10 106 -22z m7729 -82 c25 -12 49 -14 108 -9 59 5 87 3 122 -9 25
-10 100 -20 170 -25 78 -5 149 -16 190 -29 l65 -21 -55 5 c-30 2 -71 9 -90 15
-19 5 -69 10 -110 10 -41 1 -104 7 -140 15 -136 31 -126 30 -112 13 11 -14 8
-17 -18 -26 -31 -11 -60 -7 -60 9 0 5 -8 9 -17 9 -10 0 -47 10 -83 21 -36 12
-76 23 -90 24 -14 1 -32 3 -40 4 -13 1 -13 2 0 12 20 13 120 2 160 -18z m2233
-128 c15 -4 30 -12 33 -17 3 -5 -5 -6 -20 -2 -27 6 -36 -9 -13 -23 19 -12 138
-50 180 -58 24 -5 34 -11 27 -15 -9 -6 -9 -9 0 -15 6 -4 9 -13 6 -20 -6 -16 9
-29 49 -42 17 -5 29 -14 29 -19 -3 -15 35 -64 100 -132 34 -35 67 -74 75 -87
8 -13 34 -35 58 -50 52 -33 59 -53 38 -102 -27 -61 -30 -66 -48 -69 -14 -2
-17 7 -17 54 0 50 -4 60 -30 85 -16 16 -30 32 -30 37 0 4 -15 18 -33 30 -18
12 -45 40 -61 62 -16 22 -44 46 -62 54 -18 7 -35 22 -38 32 -5 13 -18 19 -48
21 -22 1 -50 7 -60 12 -11 6 -27 8 -36 4 -14 -5 -14 -4 0 12 16 19 14 93 -3
93 -5 0 -9 7 -9 15 0 9 -11 21 -25 27 -14 6 -25 17 -25 25 0 8 -11 13 -27 12
-20 -1 -22 -3 -9 -6 14 -4 16 -7 6 -13 -8 -5 -26 0 -44 11 -42 26 -70 25 -63
-1 7 -26 -4 -25 -37 1 -24 19 -38 48 -16 34 6 -4 7 2 1 17 -4 13 -13 24 -20
24 -6 1 -28 3 -48 4 l-38 2 48 12 c46 11 148 6 210 -9z m-14591 -169 c42 -1
74 -4 71 -8 -2 -5 -38 -8 -80 -8 -41 0 -96 -7 -122 -15 -25 -8 -63 -17 -84
-20 -30 -5 -37 -10 -33 -22 4 -9 -1 -22 -11 -30 -16 -12 -15 -13 12 -12 56 2
62 0 41 -16 -16 -12 -13 -13 28 -10 50 4 69 12 61 25 -3 5 21 14 52 20 32 6
94 20 138 31 139 34 215 43 266 30 48 -13 130 -9 295 11 69 8 128 8 240 -1
112 -9 169 -9 229 0 44 6 143 14 220 18 77 3 146 10 152 14 7 5 52 5 100 0 49
-4 78 -9 65 -11 -12 -2 -20 -8 -17 -13 4 -5 -13 -9 -37 -9 -24 0 -70 -5 -103
-12 -77 -14 -93 -15 -450 -23 -165 -4 -318 -10 -339 -15 -22 -5 -45 -6 -50 -4
-6 3 -3 -1 7 -9 10 -8 47 -23 83 -33 35 -9 62 -19 60 -21 -3 -3 -42 2 -88 11
-46 8 -101 18 -122 21 -47 8 -156 -10 -211 -35 -49 -22 -170 -60 -190 -60 -11
0 -14 -7 -11 -25 3 -14 2 -26 -2 -26 -4 -1 -22 -3 -41 -5 -43 -5 -45 -7 -32
-33 10 -17 9 -20 -4 -15 -8 3 -12 10 -9 15 19 31 -77 -11 -103 -45 -10 -13
-28 -28 -41 -35 -12 -6 -22 -17 -22 -24 0 -24 -40 -57 -68 -57 -15 0 -39 -8
-52 -17 l-24 -17 24 -7 c14 -4 52 -7 86 -8 36 -1 68 -7 80 -16 18 -13 16 -14
-21 -16 -22 0 -60 0 -85 0 -51 1 -87 -25 -129 -92 -12 -20 -27 -35 -32 -31 -5
3 -9 -5 -9 -18 0 -26 -17 -48 -36 -48 -7 0 -10 8 -6 22 5 20 2 21 -36 16 l-41
-6 15 36 c45 105 58 152 46 164 -10 10 -17 10 -32 0 -11 -7 -20 -8 -20 -3 0 5
-9 7 -20 4 -31 -8 -24 5 13 23 17 9 52 33 77 53 25 20 62 47 83 60 21 13 43
34 48 47 5 14 19 28 32 33 22 9 37 29 37 52 0 19 -21 8 -30 -16 -10 -26 -39
-35 -41 -12 -2 17 -2 18 5 57 3 19 3 29 0 23 -3 -7 -14 -13 -24 -13 -10 0 -20
-6 -22 -12 -3 -9 -9 -8 -22 5 -21 21 -21 21 -87 1 -30 -9 -75 -22 -101 -30
-26 -8 -69 -14 -95 -14 -29 0 -65 -8 -88 -20 -22 -11 -49 -20 -60 -20 -12 0
-26 -5 -33 -12 -9 -9 -12 -8 -12 5 0 26 -28 21 -111 -21 -102 -51 -180 -112
-173 -134 4 -13 -3 -21 -21 -28 -37 -14 -44 -12 -15 5 22 13 23 14 5 15 -14 0
-16 3 -7 9 7 4 12 12 10 18 -4 14 100 113 120 113 9 0 23 4 30 9 11 6 10 11
-3 24 -15 16 -14 16 13 11 17 -4 41 0 58 9 16 8 58 18 94 22 130 15 288 75
350 134 13 13 11 13 -15 7 l-30 -7 30 21 c17 11 33 20 37 20 4 0 31 11 60 24
74 35 134 46 198 39 30 -4 89 -7 132 -7z m5721 -120 c3 -7 -1 -22 -8 -33 -12
-17 -10 -22 22 -49 19 -16 42 -42 50 -57 8 -16 32 -36 56 -47 47 -21 89 -56
106 -88 15 -28 14 -32 -9 -32 -30 0 -46 -46 -30 -85 7 -16 16 -48 20 -70 4
-22 13 -64 20 -94 14 -61 4 -77 -35 -59 -16 7 -25 22 -29 49 -4 24 -12 39 -20
39 -11 0 -13 9 -9 33 4 24 -3 49 -27 95 -17 34 -33 79 -35 100 -2 20 -8 38
-13 40 -6 2 -18 29 -28 60 -24 76 -52 115 -81 109 -16 -3 -24 2 -28 14 -5 14
-16 19 -45 19 -43 0 -70 8 -70 21 0 4 10 5 23 0 30 -11 71 7 56 26 -16 18 8
17 41 -2 33 -19 37 -19 43 5 6 23 22 26 30 6z m-5889 -572 c4 -9 4 -25 1 -34
-5 -15 3 -19 45 -25 48 -7 142 8 165 25 15 11 99 22 118 14 29 -11 19 -24 -18
-24 -22 0 -38 -6 -41 -15 -10 -25 -83 -37 -194 -34 -96 4 -105 2 -108 -15 -4
-16 0 -18 31 -12 20 4 38 3 41 -2 8 -13 -39 -32 -80 -32 -26 0 -41 -7 -57 -26
-73 -88 -136 -144 -191 -168 -65 -29 -66 -29 -66 -18 0 5 20 19 45 31 31 15
57 39 80 74 19 29 42 62 51 74 15 21 15 23 -1 29 -10 4 -21 1 -26 -7 -5 -8 -9
-10 -9 -5 0 5 -6 4 -12 -1 -7 -6 -30 -13 -50 -17 -24 -4 -47 -18 -66 -40 -34
-39 -59 -35 -48 8 4 15 2 26 -4 26 -5 0 -10 -4 -10 -9 0 -5 -8 -12 -17 -15
-10 -3 -43 -24 -73 -45 -30 -22 -57 -38 -59 -35 -8 7 33 45 99 91 36 26 72 54
81 63 9 9 69 33 134 54 89 29 127 47 154 72 39 36 75 44 85 18z m8976 -1024
c0 -5 3 -9 8 -9 4 1 36 0 72 -1 l65 -2 -55 -15 c-30 -8 -97 -19 -148 -25 -74
-8 -95 -14 -103 -30 -5 -10 -14 -16 -20 -13 -5 4 -9 -5 -9 -18 0 -13 -9 -32
-20 -42 -13 -12 -20 -31 -20 -56 0 -35 -3 -39 -32 -47 -29 -8 -43 -5 -77 15
-2 2 3 11 11 20 9 10 21 35 29 56 7 20 19 37 26 37 7 0 13 5 13 10 0 6 -7 10
-15 10 -8 0 -15 4 -15 10 0 19 -84 -24 -113 -57 -42 -48 -64 -44 -35 6 19 32
29 40 62 44 21 3 42 9 45 14 8 12 143 58 216 74 33 7 67 16 75 20 21 12 40 11
40 -1z m3995 -286 c26 -19 17 -24 -60 -30 -78 -5 -85 -8 -85 -35 0 -13 -7 -19
-24 -19 -51 0 -78 -31 -38 -44 9 -4 28 -16 42 -27 21 -17 22 -19 3 -10 -27 14
-66 14 -58 1 14 -23 -15 -49 -58 -52 -27 -2 -41 -7 -39 -15 2 -14 -10 -17 -21
-7 -9 9 43 74 59 74 18 0 18 5 -1 34 -22 34 -34 81 -24 97 7 11 13 11 38 -4
39 -23 48 -22 26 3 -18 20 -17 20 11 20 16 0 38 7 48 15 26 20 154 19 181 -1z"/>
<path d="M410 1740 c-35 -12 -85 -19 -135 -19 -45 -1 -111 -9 -150 -20 -39
-10 -82 -21 -97 -25 -24 -5 -28 -11 -28 -42 0 -32 2 -35 23 -28 12 3 34 13 49
20 17 9 61 14 118 14 51 0 119 6 153 14 34 8 91 20 127 26 77 14 94 25 56 39
-14 6 -29 18 -32 26 -8 19 -16 18 -84 -5z"/>
</g>
</svg>
